<svg width="282" height="80" viewBox="0 0 282 80" fill="none" xmlns="http://www.w3.org/2000/svg">
<path d="M249.571 45.1036C249.571 34.3919 255.91 27.5466 265.924 27.5466C274.164 27.5466 281.707 32.9975 281.897 45.2304V47.1319H259.206C259.713 51.949 262.121 54.8646 265.924 54.8646C268.586 54.8646 270.868 53.2166 271.946 50.4278L281.39 51.3785C279.552 58.1605 273.467 62.6607 265.924 62.6607C255.91 62.6607 249.571 55.8153 249.571 45.1036ZM259.459 41.5542H272.199C271.375 37.4977 268.967 35.3427 265.924 35.3427C262.502 35.3427 260.22 37.6244 259.459 41.5542Z" fill="#2500DC"/>
<path d="M245.603 16.8982V61.9001H236.983L236.793 57.0196C234.955 60.6324 231.976 62.6607 227.412 62.6607C219.426 62.6607 214.609 55.435 214.609 45.1036C214.609 34.7722 219.426 27.5465 227.412 27.5465C231.659 27.5465 234.574 29.5114 236.666 33.1242V16.8982H245.603ZM224.053 45.1036C224.053 50.7447 226.335 54.8646 230.708 54.8646C235.018 54.8646 237.3 50.6813 237.3 45.1036C237.3 39.4625 235.018 35.2793 230.708 35.2793C226.335 35.2793 224.053 39.3991 224.053 45.1036Z" fill="#2500DC"/>
<path d="M202.781 28.3071V53.9772H212.923V61.9001H181.802V53.9772H193.781V36.23H182.626V28.3071H202.781ZM193.718 24.3774V16.8982H202.718V24.3774H193.718Z" fill="#2500DC"/>
<path d="M165.98 39.209C165.537 36.5469 163.635 35.3427 160.846 35.3427C158.311 35.3427 156.409 36.3568 156.6 38.2583C156.79 40.3499 159.325 40.9837 164.079 42.0612C170.924 43.519 175.995 47.1319 175.995 52.6462C175.995 59.238 170.48 62.6607 161.987 62.6607C153.494 62.6607 147.029 58.0337 146.522 50.9348L156.219 50.5545C156.473 53.3434 158.818 54.8646 161.987 54.8646C164.713 54.8646 166.551 54.1674 166.551 52.3927C166.551 50.5546 164.015 49.794 159.642 48.7164C152.226 46.9417 147.156 43.6458 147.156 38.1949C147.156 31.7298 153.24 27.5466 161.417 27.5466C168.833 27.5466 174.791 31.92 175.805 38.8287L165.98 39.209Z" fill="#2500DC"/>
<path d="M117.897 67.6045L136.659 15.1235H145.279L126.518 67.6045H117.897Z" fill="#2500DC"/>
<path d="M103.915 41.8077C103.344 38.0047 100.809 35.3427 97.5764 35.3427C93.2664 35.3427 90.731 39.0822 90.731 45.1036C90.731 51.125 93.2664 54.8646 97.5764 54.8646C100.999 54.8646 103.534 52.2025 104.041 48.3361L113.485 48.7164C112.662 57.0196 106.07 62.6607 97.5764 62.6607C87.5619 62.6607 81.287 55.8153 81.287 45.1036C81.287 34.3919 87.5619 27.5466 97.5764 27.5466C105.816 27.5466 112.535 33.1243 113.359 41.3006L103.915 41.8077Z" fill="#2500DC"/>
<path fill-rule="evenodd" clip-rule="evenodd" d="M38.5891 3.52343C39.339 3.24221 40.1654 3.24221 40.9154 3.52343L67.4169 13.4615C68.7099 13.9464 69.5665 15.1824 69.5665 16.5633V39.7522C69.5665 51.1692 62.0077 60.2919 55.1844 66.2623C51.7032 69.3084 48.2375 71.6893 45.6488 73.3073C44.351 74.1184 43.2647 74.7433 42.4953 75.1692C42.1104 75.3823 41.8042 75.5459 41.5897 75.6585C41.4824 75.7148 41.398 75.7584 41.3382 75.7891C41.3265 75.795 41.3157 75.8005 41.3059 75.8056C41.2906 75.8134 41.2776 75.8199 41.267 75.8253L41.2455 75.8362L41.2384 75.8397L41.2357 75.8411C41.2347 75.8416 41.2337 75.8421 39.7522 72.8791C38.2707 75.8421 38.2698 75.8416 38.2687 75.8411L38.266 75.8397L38.2589 75.8362L38.2375 75.8253C38.22 75.8165 38.1962 75.8044 38.1662 75.7891C38.1064 75.7584 38.022 75.7148 37.9147 75.6585C37.7002 75.5459 37.394 75.3823 37.0091 75.1692C36.2397 74.7433 35.1534 74.1184 33.8556 73.3073C31.2669 71.6893 27.8013 69.3084 24.32 66.2623C17.4967 60.2919 9.93796 51.1692 9.93796 39.7522V16.5633C9.93796 15.1824 10.7945 13.9464 12.0875 13.4615L38.5891 3.52343ZM39.7522 72.8791L38.2707 75.8421C39.2033 76.3084 40.3011 76.3084 41.2337 75.8421L39.7522 72.8791ZM39.7522 69.1118C40.3871 68.752 41.1989 68.2755 42.1374 67.689C44.5177 66.2013 47.6774 64.0273 50.8216 61.2761C57.249 55.6521 62.9411 48.2113 62.9411 39.7522V18.859L39.7522 10.1632L16.5633 18.859V39.7522C16.5633 48.2113 22.2554 55.6521 28.6829 61.2761C31.827 64.0273 34.9868 66.2013 37.3671 67.689C38.3056 68.2755 39.1174 68.752 39.7522 69.1118Z" fill="#2500DC"/>
<mask id="mask0_1_317" style="mask-type:alpha" maskUnits="userSpaceOnUse" x="9" y="3" width="61" height="74">
<path fill-rule="evenodd" clip-rule="evenodd" d="M40.9154 3.52343C40.1654 3.24221 39.339 3.24221 38.5891 3.52343L12.0875 13.4615C10.7945 13.9464 9.93796 15.1824 9.93796 16.5633V39.7522C9.93796 51.1692 17.4967 60.2919 24.32 66.2623C27.8013 69.3084 31.2669 71.6893 33.8556 73.3073C35.1534 74.1184 36.2397 74.7433 37.0091 75.1692C37.394 75.3823 37.7002 75.5459 37.9147 75.6585C38.022 75.7148 38.1064 75.7584 38.1662 75.7891C38.1962 75.8044 38.22 75.8165 38.2375 75.8253L38.2589 75.8362L38.266 75.8397L38.2687 75.8411C38.2698 75.8416 38.2707 75.8421 39.7522 72.8792L38.2707 75.8421C39.2033 76.3084 40.3011 76.3084 41.2337 75.8421L39.7522 72.8792C41.2336 75.8421 41.2347 75.8416 41.2357 75.8411L41.2384 75.8397L41.2455 75.8362L41.267 75.8253L41.3059 75.8056L41.3382 75.7891C41.398 75.7584 41.4824 75.7148 41.5897 75.6585C41.8042 75.5459 42.1104 75.3823 42.4953 75.1692C43.2647 74.7433 44.351 74.1184 45.6488 73.3073C48.2375 71.6893 51.7032 69.3084 55.1844 66.2623C62.0077 60.2919 69.5665 51.1692 69.5665 39.7522V16.5633C69.5665 15.1824 68.7099 13.9464 67.4169 13.4615L40.9154 3.52343Z" fill="#2500DC"/>
</mask>
<g mask="url(#mask0_1_317)">
<path d="M35.7812 68C33.783 54.5831 38.6643 43.8787 42.9434 37.5104C43.2659 37.0306 43.2296 36.3943 42.8457 35.962C42.3595 35.4147 41.5073 35.4019 41.0174 35.946C31.797 46.186 28.3386 56.9778 26.7364 66.4193C26.6215 67.096 26.9982 67.7571 27.6345 68.0146L30.8288 69.3072C30.9482 69.3555 31.0734 69.388 31.2012 69.4039L34.1037 69.7637C35.1021 69.8875 35.9294 68.9951 35.7812 68Z" fill="#2500DC"/>
<path fill-rule="evenodd" clip-rule="evenodd" d="M43.5472 35.3387C42.6985 34.3832 41.1933 34.3476 40.3196 35.3179C30.9442 45.73 27.4322 56.707 25.8107 66.2623C25.6207 67.3817 26.245 68.465 27.2821 68.8847L30.4765 70.1773C30.6717 70.2563 30.8765 70.3095 31.0855 70.3354L31.201 69.4039L31.0855 70.3354L33.9879 70.6953C35.6373 70.8998 36.9438 69.4358 36.7094 67.8617C34.757 54.7526 39.5232 44.2832 43.7223 38.034C44.278 37.2069 44.2217 36.098 43.5472 35.3387ZM41.7147 36.574C41.8208 36.4562 42.0199 36.4461 42.1436 36.5854C42.237 36.6905 42.2532 36.8543 42.1641 36.9869C37.805 43.4742 32.8085 54.4136 34.8525 68.1383C34.9145 68.5545 34.5664 68.8753 34.2189 68.8322L31.3165 68.4723C31.2699 68.4665 31.2242 68.4547 31.1807 68.4371L30.8286 69.3072L31.1807 68.4371L27.9863 67.1444C27.7509 67.0492 27.6218 66.8104 27.6615 66.5764C29.2444 57.2487 32.6492 46.642 41.7147 36.574Z" fill="#2500DC"/>
<path d="M54.2834 49.7809C51.5958 41.303 45.6911 35.2057 43.0747 33.2168C41.2977 32.3655 43.0365 30.6932 49.0294 33.1817C60.721 38.0365 57.6429 60.3784 54.2834 49.7809Z" fill="#2500DC"/>
<path fill-rule="evenodd" clip-rule="evenodd" d="M43.8587 32.735C44.7491 32.7236 46.3289 32.9934 48.699 33.9776C51.38 35.0909 53.246 37.2171 54.4841 39.6984C55.7247 42.1849 56.3093 44.9824 56.4401 47.324C56.5055 48.4931 56.4564 49.5265 56.3289 50.3312C56.2349 50.9249 56.1087 51.3246 55.9982 51.5622C55.7684 51.2476 55.4534 50.6197 55.1049 49.5205C52.4375 41.1062 46.6913 34.9904 43.8587 32.735ZM56.1864 51.7674C56.1864 51.7673 56.1852 51.7665 56.1826 51.7651C56.1852 51.7668 56.1864 51.7675 56.1864 51.7674ZM42.6166 33.9514C42.3603 33.8194 42.1228 33.6537 41.9359 33.4473C41.7298 33.2198 41.5396 32.8879 41.5513 32.4777C41.5635 32.0478 41.7916 31.7155 42.0613 31.501C42.3187 31.2963 42.6349 31.1758 42.9517 31.1055C44.1806 30.8328 46.3203 31.1236 49.36 32.3858C52.5247 33.6999 54.6583 36.1869 56.0264 38.9289C57.3919 41.6658 58.0199 44.7017 58.1611 47.2278C58.2317 48.4925 58.1816 49.6515 58.0313 50.6008C57.8883 51.5035 57.633 52.3668 57.1804 52.899C56.936 53.1865 56.5545 53.4655 56.0423 53.4621C55.5487 53.4589 55.1588 53.193 54.8838 52.9101C54.3508 52.3619 53.8871 51.3825 53.4619 50.0414C50.8613 41.8377 45.1574 35.909 42.6166 33.9514Z" fill="#2500DC"/>
<path d="M43.387 51.9213C45.1876 44.5956 43.6072 37.5815 42.5919 34.9901C41.6816 33.5922 43.6794 33.1443 46.9183 37.5816C53.2372 46.2384 41.1364 61.0784 43.387 51.9213Z" fill="#2500DC"/>
<path fill-rule="evenodd" clip-rule="evenodd" d="M43.6228 35.3055C44.2489 35.7552 45.1397 36.6067 46.2222 38.0897C47.6471 40.0417 48.0554 42.3681 47.8571 44.6886C47.6584 47.0148 46.8521 49.2822 45.9186 51.0247C45.4527 51.8944 44.9653 52.614 44.5246 53.1329C44.3051 53.3913 44.1171 53.576 43.9667 53.7038C43.9765 53.3698 44.0438 52.8598 44.2239 52.127C45.9472 45.1155 44.6671 38.3956 43.6228 35.3055ZM44.0055 54.1444C44.0055 54.1444 44.005 54.1429 44.0037 54.1402C44.0048 54.1432 44.0054 54.1445 44.0055 54.1444ZM41.8179 35.3779C41.6876 35.1626 41.5841 34.9267 41.537 34.6794C41.4842 34.4021 41.4922 34.0406 41.7056 33.712C41.9295 33.3672 42.2793 33.2115 42.5978 33.1709C42.9007 33.1323 43.2039 33.1893 43.4758 33.2815C44.5261 33.6375 45.9672 34.8169 47.6144 37.0735C49.349 39.4499 49.7976 42.2248 49.5745 44.8354C49.3519 47.4402 48.4584 49.9336 47.4379 51.8386C46.9268 52.7926 46.3736 53.6185 45.8382 54.2487C45.3333 54.8431 44.7478 55.3805 44.1494 55.5791C43.8241 55.6872 43.3808 55.7291 42.9666 55.4739C42.5678 55.2282 42.3896 54.8243 42.3114 54.4804C42.1604 53.8164 42.2647 52.8768 42.5501 51.7156C44.2822 44.6685 42.7848 37.9022 41.8179 35.3779Z" fill="#2500DC"/>
<path d="M57.9321 34.0753C52.5865 31.4463 47.0086 31.4953 44.8878 31.8484C43.6933 32.3205 43.6291 30.6938 47.4692 28.924C54.961 25.4712 64.6141 37.3615 57.9321 34.0753Z" fill="#2500DC"/>
<path fill-rule="evenodd" clip-rule="evenodd" d="M45.8087 30.8728C46.2484 30.5378 46.8981 30.136 47.8298 29.7067C49.4541 28.958 51.231 29.0221 52.9477 29.5571C54.6688 30.0935 56.2693 31.0871 57.4586 32.0947C58.0517 32.5972 58.526 33.0892 58.8538 33.5092C58.869 33.5288 58.8839 33.5481 58.8984 33.5671C58.7312 33.4992 58.5366 33.4123 58.3122 33.3019C53.5008 30.9357 48.5167 30.658 45.8087 30.8728ZM45.0096 31.7185C45.0103 31.7181 45.0139 31.7103 45.0178 31.6964C45.0107 31.712 45.0088 31.7189 45.0096 31.7185ZM59.7113 33.7935C59.7112 33.7935 59.7102 33.7936 59.7083 33.7938C59.7104 33.7937 59.7113 33.7936 59.7113 33.7935ZM45.107 32.686C44.9107 32.7538 44.6963 32.798 44.4763 32.7924C44.2187 32.7858 43.8958 32.7064 43.6383 32.4495C43.082 31.8943 43.3435 31.1583 43.5362 30.8098C43.9876 29.9937 45.1422 29.0475 47.1084 28.1413C49.2299 27.1636 51.4691 27.291 53.4605 27.9116C55.4477 28.5309 57.2476 29.657 58.5727 30.7796C59.2368 31.3422 59.7983 31.9179 60.2127 32.449C60.599 32.9441 60.9492 33.5146 61.0234 34.0537C61.0635 34.3452 61.0378 34.7613 60.7284 35.1029C60.4269 35.4357 60.0203 35.5143 59.7174 35.5176C59.1379 35.5238 58.3996 35.2657 57.5516 34.8486C52.4643 32.3467 47.1472 32.3679 45.107 32.686Z" fill="#2500DC"/>
<path d="M35.8848 21.6533C40.4595 25.469 42.6818 30.5853 43.2211 32.6664C43.2753 33.9497 44.7877 33.3473 44.8439 29.1193C44.9537 20.8709 30.1665 16.8836 35.8848 21.6533Z" fill="#2500DC"/>
<path fill-rule="evenodd" clip-rule="evenodd" d="M43.7384 31.4284C43.8657 30.8905 43.9687 30.1336 43.9824 29.1078C44.0062 27.3194 43.2255 25.722 42.0389 24.3709C40.8494 23.0164 39.291 21.9579 37.887 21.2807C37.1868 20.943 36.5445 20.7097 36.0275 20.5809C36.0035 20.5749 35.9798 20.5692 35.9565 20.5637C36.0866 20.6889 36.245 20.8313 36.437 20.9915C40.5545 24.4258 42.834 28.8669 43.7384 31.4284ZM43.2905 32.5023C43.2905 32.5014 43.2962 32.495 43.3073 32.4858C43.296 32.4986 43.2904 32.5032 43.2905 32.5023ZM35.4192 19.913C35.4193 19.913 35.4196 19.914 35.4202 19.9158C35.4195 19.9139 35.4192 19.913 35.4192 19.913ZM42.3669 32.8064C42.3847 33.0134 42.4315 33.2273 42.526 33.426C42.6367 33.6587 42.8405 33.9215 43.1799 34.0523C43.9133 34.3349 44.4794 33.7969 44.7195 33.4791C45.2817 32.735 45.677 31.2955 45.7058 29.1307C45.7369 26.795 44.7104 24.8008 43.334 23.2335C41.9605 21.6696 40.2 20.4828 38.6358 19.7283C37.8518 19.3502 37.0975 19.0711 36.444 18.9084C35.8345 18.7567 35.171 18.6686 34.6482 18.8199C34.3656 18.9017 33.9959 19.0944 33.8096 19.5159C33.628 19.9266 33.7214 20.33 33.8416 20.6081C34.0714 21.1401 34.6073 21.7097 35.333 22.3151C39.6866 25.9464 41.8283 30.813 42.3669 32.8064Z" fill="#2500DC"/>
<path d="M29.8093 41.4463C34.293 37.5242 39.6937 36.1287 41.8336 35.9213C43.1096 36.0683 42.7509 34.4804 38.5837 33.764C30.4538 32.3666 24.2046 46.349 29.8093 41.4463Z" fill="#2500DC"/>
<path fill-rule="evenodd" clip-rule="evenodd" d="M40.6917 35.2171C40.1802 35.0072 39.4487 34.7872 38.4377 34.6134C36.675 34.3104 34.9752 34.8319 33.4552 35.7927C31.9315 36.756 30.6425 38.1298 29.7542 39.4107C29.3113 40.0495 28.9804 40.6474 28.7724 41.138C28.7627 41.1608 28.7534 41.1833 28.7443 41.2054C28.8882 41.0965 29.0537 40.9623 29.2419 40.7977C33.2775 37.2675 38.0202 35.71 40.6917 35.2171ZM41.6823 35.8273C41.6815 35.8271 41.676 35.8205 41.6687 35.8081C41.6795 35.8213 41.6832 35.8275 41.6823 35.8273ZM28.0176 41.6344C28.0176 41.6344 28.0186 41.6342 28.0205 41.6339C28.0186 41.6343 28.0176 41.6344 28.0176 41.6344ZM41.8384 36.7871C42.0456 36.8018 42.2642 36.789 42.4752 36.7267C42.7224 36.6538 43.0138 36.4935 43.196 36.1787C43.5898 35.4985 43.1468 34.8553 42.8705 34.5684C42.2234 33.8969 40.8633 33.2815 38.7297 32.9147C36.4275 32.519 34.2974 33.2212 32.5342 34.3358C30.7749 35.448 29.3275 37.0014 28.3379 38.4285C27.8419 39.1438 27.4484 39.8452 27.1855 40.4653C26.9404 41.0435 26.7497 41.6851 26.8175 42.2251C26.8541 42.5171 26.9866 42.9123 27.3738 43.1623C27.7511 43.4058 28.1642 43.3765 28.4577 43.3013C29.0191 43.1575 29.6654 42.7172 30.3767 42.095C34.6438 38.3623 39.7853 37.0075 41.8384 36.7871Z" fill="#2500DC"/>
<path d="M21.5918 29.7934C30.4739 29.3385 38.2542 32.7312 41.0341 34.4843C42.4543 35.8501 43.4109 33.6355 38.9795 28.8952C30.3344 19.6473 10.4892 30.3619 21.5918 29.7934Z" fill="#2500DC"/>
<path fill-rule="evenodd" clip-rule="evenodd" d="M41.2102 33.5813C40.9088 32.7433 40.1023 31.3584 38.3498 29.4837C36.3673 27.363 33.7219 26.3608 30.964 26.0711C28.2004 25.7808 25.3755 26.214 23.1366 26.9122C22.0188 27.2609 21.0682 27.6692 20.3592 28.0706C19.8361 28.3668 19.5061 28.6251 19.3223 28.8118C19.6974 28.9168 20.3959 28.9917 21.5475 28.9327C30.363 28.4813 38.105 31.719 41.2102 33.5813ZM19.0641 28.7075C19.0641 28.7074 19.0654 28.7083 19.0676 28.7102C19.0651 28.7085 19.064 28.7075 19.0641 28.7075ZM40.5064 35.1709C40.7199 35.3647 40.9583 35.529 41.2171 35.6317C41.5024 35.745 41.88 35.8067 42.2601 35.652C42.6584 35.4899 42.8897 35.1598 42.996 34.832C43.0975 34.5192 43.0995 34.1808 43.0543 33.8595C42.8789 32.613 41.8565 30.711 39.6089 28.3066C37.2687 25.8034 34.1916 24.677 31.144 24.3569C28.1022 24.0375 25.0387 24.5135 22.6234 25.2668C21.4142 25.644 20.3464 26.0971 19.51 26.5707C18.7146 27.021 17.9956 27.5628 17.6558 28.1732C17.4723 28.5029 17.3448 28.958 17.5274 29.4365C17.7035 29.8977 18.0891 30.1696 18.4505 30.328C19.1508 30.635 20.2306 30.726 21.6357 30.6541C30.2305 30.2139 37.7824 33.4775 40.5064 35.1709Z" fill="#2500DC"/>
</g>
</svg>
